:SAMPLES-PER-SECOND 30
:FULLY-SPECIFIED
:DEGREES
317
root  35.11788376 36.50311748 -14.8361161 9.449670792 3.673693895 3.204864979
lowerback  -9.136490822 1.019530058 0.6816361547
upperback  -3.75357008 0.9639559984 -3.64015007
thorax  1.30332005 0.2785510123 -4.064400196
lowerneck  -16.46459961 -0.9112330079 0.4461919963
upperneck  20.2541008 -2.966779947 4.592710018
head  9.161450386 -1.051530123 1.090739965
lclavicle  0 -4.497500157e-015 -2.743230041e-014
lhumerus  -45.48720169 27.50329971 67.94419861
lradius  -0.2907702625 -6.507048965e-006 27.84989929
lwrist  4.824992743e-007 -3.790274832e-007 -29.87360001
lhand  -4.403357898e-031 -36.68650055 -10.5717001
lfingers  90 7.125020027 -90
lthumb  94.69450592 -25.41686336 100.8314207
rclavicle  0 -4.497500157e-015 -2.743230041e-014
rhumerus  -11.25579929 10.00100136 -69.28630066
rradius  -5.16745672e-007 2.214343908e-008 107.1549988
rwrist  -3.062178075e-005 0.01194404531 -178.753006
rhand  -1.773769959e-031 5.51391983 -5.793630123
rfingers  -90 -7.125020027 -90
rthumb  -83.89505489 -10.09180537 -58.60045054
rfemur  -12.32544136 13.66650963 13.88317108
rtibia  -1.212582827 1.302388072 21.48729515
rfoot  -0.9895479083 -17.87064743 -40.89036179
rtoes  3.940523329 19.62356788 -101.5911419
lfemur  -10.5524435 -20.15825081 -18.43528175
ltibia  1.696128249 0.8926041126 16.09854126
lfoot  0.5496376157 -27.83714104 34.18552017
ltoes  -8.603310072 -18.12379643 -115.9367771
318
root  35.11966495 36.50197007 -14.84036333 9.395839691 3.549406528 3.183793783
lowerback  -9.2166996 1.003770113 0.67140311
upperback  -3.719399929 0.9469850063 -3.628580093
thorax  1.381229997 0.2721019983 -4.047860146
lowerneck  -16.45870018 -0.9719129801 0.3530150056
upperneck  20.2901001 -3.031769991 4.595230103
head  9.175430298 -1.089359999 1.098829985
lclavicle  0 -4.497500157e-015 -2.743230041e-014
lhumerus  -45.44800186 27.56170082 67.9654007
lradius  -0.2923346758 -6.507048965e-006 27.87529945
lwrist  4.824992743e-007 -3.790274832e-007 -30.05389977
lhand  -4.402115997e-031 -36.66479874 -10.54539967
lfingers  90 7.125020027 -90
lthumb  94.67896641 -25.39185482 100.8059479
rclavicle  0 -4.497500157e-015 -2.743230041e-014
rhumerus  -12.70960045 9.594381332 -69.59989929
rradius  -5.16745672e-007 2.214343908e-008 107.5149994
rwrist  -3.062178075e-005 0.01194404531 -178.8300018
rhand  -1.774179408e-031 5.649240017 -5.99710989
rfingers  -90 -7.125020027 -90
rthumb  -83.96727148 -9.925472596 -58.48667683
rfemur  -12.28733063 13.75659847 13.88533401
rtibia  -1.194881201 1.309973836 21.46583176
rfoot  -0.9607902765 -17.87485313 -40.84067917
rtoes  3.945538642 19.6225983 -101.6060759
lfemur  -10.47502041 -20.08007622 -18.44400978
ltibia  1.680151105 0.8948689699 16.08426285
lfoot  0.5571493506 -27.85612106 34.26529694
ltoes  -8.591107507 -18.12943191 -115.8975555
319
root  35.1205961 36.50124017 -14.84508514 9.352820396 3.434276342 3.182639122
lowerback  -9.285261154 0.9843090773 0.6898295283
upperback  -3.694900036 0.9220889807 -3.609879971
thorax  1.442499995 0.261251986 -4.041100025
lowerneck  -16.45389938 -1.038460016 0.2475350052
upperneck  20.34259987 -3.097990274 4.577310085
head  9.195099831 -1.130740047 1.101829767
lclavicle  0 -4.497500157e-015 -2.743230041e-014
lhumerus  -45.48699951 27.6602993 67.91989899
lradius  -0.2938980758 -6.507048965e-006 27.91900063
lwrist  4.824992743e-007 -3.790274832e-007 -30.38019943
lhand  -4.402070398e-031 -36.66400146 -10.57660007
lfingers  90 7.125020027 -90
lthumb  94.6850571 -25.42246548 100.8078674
rclavicle  0 -4.497500157e-015 -2.743230041e-014
rhumerus  -14.08299923 9.094820976 -69.98179626
rradius  -5.16745672e-007 2.214343908e-008 107.7649994
rwrist  -3.062178075e-005 0.01194404531 -178.7132874
rhand  -0 5.635829926 -6.110290051
rfingers  -90 -7.125020027 -90
rthumb  -84.03078347 -9.82823646 -58.51001535
rfemur  -12.25601482 13.79581642 13.86087322
rtibia  -1.183624864 1.273677945 21.44927788
rfoot  -0.9626387358 -17.95366669 -40.82183838
rtoes  3.930171541 19.62556507 -101.5603198
lfemur  -10.42012024 -20.05614471 -18.46878433
ltibia  1.666446209 0.8774949312 16.07272339
lfoot  0.5641107559 -27.83358955 34.36525345
ltoes  -8.581263807 -18.13397072 -115.8659243
320
root  35.12278279 36.50137834 -14.85142295 9.312233925 3.2891469 3.176419735
lowerback  -9.357081413 0.9707329869 0.6754931808
upperback  -3.669919968 0.9083170295 -3.568399906
thorax  1.506039977 0.2567200065 -3.990679979
lowerneck  -16.44930077 -1.135220051 0.08211079985
upperneck  20.41329956 -3.195349932 4.572060108
head  9.222970009 -1.190029979 1.115170002
lclavicle  0 -4.497500157e-015 -2.743230041e-014
lhumerus  -45.48419952 27.64559937 68.0223999
lradius  -0.2954585254 -6.507048965e-006 27.96400261
lwrist  4.824992743e-007 -3.790274832e-007 -30.40719986
lhand  -4.401235534e-031 -36.6493988 -10.56459999
lfingers  90 7.125020027 -90
lthumb  94.67577023 -25.41123837 100.791198
rclavicle  0 -4.497500157e-015 -2.743230041e-014
rhumerus  -15.47229958 8.647409439 -70.29540253
rradius  -5.16745672e-007 2.214343908e-008 107.973999
rwrist  -3.062178075e-005 0.01194404531 -178.8009949
rhand  -1.774082282e-031 5.617440224 -6.201179981
rfingers  -90 -7.125020027 -90
rthumb  -84.08371726 -9.749719881 -58.53626483
rfemur  -12.2273035 13.91712761 13.83346558
rtibia  -1.174287438 1.261957645 21.41880608
rfoot  -0.9420464039 -17.96200562 -40.80386734
rtoes  3.957488705 19.62028286 -101.6416624
lfemur  -10.40512085 -20.05621147 -18.47971535
ltibia  1.617764592 0.8266729712 16.11892891
lfoot  0.5663573742 -27.76972771 34.48431778
ltoes  -8.55641599 -18.14539887 -115.7861137
